<?xml version="1.0" encoding="utf-8"?>
<!-- Generator: Adobe Illustrator 18.0.0, SVG Export Plug-In . SVG Version: 6.00 Build 0)  -->
<!DOCTYPE svg PUBLIC "-//W3C//DTD SVG 1.1 Tiny//EN" "http://www.w3.org/Graphics/SVG/1.1/DTD/svg11-tiny.dtd">
<svg version="1.1" baseProfile="tiny" id="Ebene_1" xmlns="http://www.w3.org/2000/svg" xmlns:xlink="http://www.w3.org/1999/xlink"
	 x="0px" y="0px" viewBox="0 0 22 22" xml:space="preserve">
<path fill="#FFFFFF" d="M14,8v6H8V8H14 M15,7H7v8h8V7L15,7z"/>
<rect x="7.6" y="7.6" fill="#FFFFFF" width="6.7" height="1.3"/>
<polygon fill="#FFFFFF" points="7,2 2,2 2,3 2,7 3,7 3,3.7 5.6,6.4 6.4,5.6 3.7,3 7,3 "/>
<polygon fill="#FFFFFF" points="20,7 20,2 19,2 15,2 15,3 18.3,3 15.6,5.6 16.4,6.4 19,3.7 19,7 "/>
<polygon fill="#FFFFFF" points="15,20 20,20 20,19 20,15 19,15 19,18.3 16.4,15.6 15.6,16.4 18.3,19 15,19 "/>
<polygon fill="#FFFFFF" points="2,15 2,20 3,20 7,20 7,19 3.7,19 6.4,16.4 5.6,15.6 3,18.3 3,15 "/>
</svg>
