<?xml version="1.0" encoding="utf-8"?>
<!-- Generator: Adobe Illustrator 18.0.0, SVG Export Plug-In . SVG Version: 6.00 Build 0)  -->
<!DOCTYPE svg PUBLIC "-//W3C//DTD SVG 1.1 Tiny//EN" "http://www.w3.org/Graphics/SVG/1.1/DTD/svg11-tiny.dtd">
<svg version="1.1" baseProfile="tiny" id="Ebene_1" xmlns="http://www.w3.org/2000/svg" xmlns:xlink="http://www.w3.org/1999/xlink"
	 x="0px" y="0px" viewBox="0 0 290 55" xml:space="preserve">
<rect x="18" y="6" fill="#FFFFFF" width="22" height="6"/>
<rect x="11" y="18" fill="#FFFFFF" width="34" height="6"/>
<rect x="7" y="30" fill="#FFFFFF" width="30" height="6"/>
<g>
	<path fill="#FFFFFF" d="M72.4,6.6l-4.4,15.5c-0.4,1.5-1.5,1.8-2.4,1.8c-0.9,0-2-0.3-2.4-1.8L58.8,6.6c0,0,0-0.1,0-0.1
		c0-0.2,0.2-0.4,0.4-0.4h1.4c0.2,0,0.4,0.2,0.4,0.4l4.1,15.1c0.1,0.3,0.2,0.5,0.5,0.5c0.2,0,0.4-0.2,0.5-0.5l4.2-15.1
		c0-0.2,0.2-0.4,0.4-0.4h1.4c0.2,0,0.4,0.2,0.4,0.4C72.5,6.5,72.5,6.6,72.4,6.6z"/>
	<path fill="#FFFFFF" d="M86.2,23.7h-1.9c-0.2,0-0.4-0.1-0.5-0.2L77,15.2v8c0,0.2-0.2,0.5-0.4,0.5h-1.3c-0.2,0-0.4-0.2-0.4-0.5V6.5
		c0-0.2,0.2-0.5,0.5-0.5h1.3c0.2,0,0.5,0.2,0.5,0.5v7.7l6.8-7.9c0.1-0.1,0.2-0.2,0.5-0.2H86c0.3,0,0.4,0.1,0.4,0.3
		c0,0.1,0,0.1-0.1,0.2l-7.2,8.1l7.2,8.7c0,0.1,0.1,0.1,0.1,0.2C86.4,23.6,86.3,23.7,86.2,23.7z"/>
	<path fill="#FFFFFF" d="M98.4,15.5h-7.3v7.8c0,0.3-0.2,0.5-0.5,0.5h-1.2c-0.3,0-0.5-0.2-0.5-0.5V10.3c0-3.2,1.7-4.4,5.1-4.4
		c1.4,0,3.6,0,4.6,0.1c0.1,0,0.2,0.2,0.2,0.3v1.2c0,0.2-0.1,0.3-0.3,0.3H94c-2.5,0-2.9,0.7-2.9,2.5v3.3h7.3c0.3,0,0.5,0.2,0.5,0.5
		V15C98.9,15.2,98.6,15.5,98.4,15.5z"/>
	<path fill="#FFFFFF" d="M108.9,14.7l-2.3,1.5c-2.6,1.8-3.3,3-3.3,5.1v0.5h8c0.3,0,0.5,0.1,0.5,0.4v1c0,0.3-0.2,0.4-0.5,0.4h-9.4
		c-0.3,0-0.5-0.2-0.5-0.5v-1.9c0-2.5,1-4.5,3.6-6.2l2.4-1.6c2-1.3,2.4-1.9,2.4-3.3c0-1.7-1-2.4-3.6-2.4c-1.2,0-2.9,0.2-4.2,0.4
		c0,0,0,0-0.1,0c-0.2,0-0.4-0.2-0.4-0.4V6.8c0-0.2,0.2-0.4,0.5-0.4c1.2-0.3,2.8-0.5,4.2-0.5c3.8,0,5.7,1.3,5.7,4.3
		C112,12,111.1,13.2,108.9,14.7z"/>
	<path fill="#FFFFFF" d="M116.2,23.7h-1.1c-0.2,0-0.5-0.2-0.5-0.5V21c0-0.2,0.2-0.5,0.5-0.5h1.1c0.2,0,0.5,0.2,0.5,0.5v2.2
		C116.7,23.5,116.5,23.7,116.2,23.7z"/>
	<path fill="#FFFFFF" d="M124.7,23.9c-3.6,0-5.8-2.1-5.8-7.4v-3.2c0-5.3,2.3-7.4,5.8-7.4c3.6,0,5.8,2.1,5.8,7.4v3.2
		C130.5,21.7,128.3,23.9,124.7,23.9z M128.4,13.3c0-4-1.4-5.6-3.7-5.6c-2.2,0-3.7,1.5-3.7,5.6v3.2c0,4,1.4,5.6,3.7,5.6
		c2.2,0,3.7-1.5,3.7-5.6V13.3z"/>
	<path fill="#FFFFFF" d="M71.7,47.8c-1.4,0.3-3.2,0.6-5.5,0.6c-2.9,0-7.2-1.4-7.2-7.8v-2.5c0-6.5,4.2-7.8,7.5-7.8
		c2.5,0,4.2,0.4,5.2,0.6c0.3,0.1,0.5,0.1,0.5,0.5v3c0,0.3-0.1,0.4-0.3,0.4c0,0,0,0-0.1,0c-0.9-0.1-2.8-0.2-4.6-0.2
		c-2.3,0-3.3,0.7-3.3,3.6v2.5c0,3.2,1.4,3.6,2.3,3.6c0.5,0,0.9,0,1.3-0.1v-4.9c0-0.3,0.2-0.5,0.5-0.5h3.8c0.3,0,0.5,0.2,0.5,0.5v8
		C72.2,47.6,72.1,47.7,71.7,47.8z"/>
	<path fill="#FFFFFF" d="M85.4,48.1c-0.9,0.1-2.4,0.3-4.7,0.3c-3,0-6.1-0.7-6.1-5.3v-7.5c0-4.6,3-5.3,6.1-5.3c2.3,0,3.8,0.2,4.7,0.3
		c0.3,0,0.5,0.2,0.5,0.5v2.9c0,0.3-0.2,0.5-0.5,0.5h-4.8c-0.9,0-1.1,0.3-1.1,1.2v1.7h5.8c0.3,0,0.5,0.2,0.5,0.5v2.8
		c0,0.3-0.2,0.5-0.5,0.5h-5.8v2c0,0.9,0.3,1.2,1.1,1.2h4.8c0.3,0,0.5,0.2,0.5,0.5v2.9C85.9,47.9,85.7,48,85.4,48.1z"/>
	<path fill="#FFFFFF" d="M95.2,48.4c-3.9,0-7.3-2-7.3-7.8v-2.4c0-5.8,3.4-7.8,7.3-7.8c3.9,0,7.3,2,7.3,7.8v2.4
		C102.4,46.4,99.1,48.4,95.2,48.4z M97.6,38.1c0-2.5-0.7-3.6-2.4-3.6s-2.4,1-2.4,3.6v2.4c0,2.5,0.7,3.6,2.4,3.6s2.4-1,2.4-3.6V38.1z
		"/>
	<path fill="#FFFFFF" d="M118.8,48.2h-4.4c-0.3,0-0.4-0.2-0.5-0.5l-3-5.7l-0.2-0.1c-0.2,0-1,0-1.2,0v5.8c0,0.3-0.2,0.5-0.5,0.5h-3.8
		c-0.3,0-0.5-0.2-0.5-0.5V32.2c0-1.1,0.4-1.4,1.4-1.6c1-0.1,3.3-0.3,5-0.3c4.4,0,7.4,1.4,7.4,5.7v0.4c0,2.5-1.4,4-2.9,4.7l3.4,6.5
		c0,0.1,0.1,0.2,0.1,0.3C119.2,48,119.1,48.2,118.8,48.2z M113.8,36c0-1.1-0.8-1.7-2.4-1.7c-0.2,0-1.7,0-1.8,0v3.8
		c0.1,0,1.6,0,1.7,0c1.8,0,2.5-0.6,2.5-1.8V36z"/>
	<path fill="#FFFFFF" d="M131.6,48.1c-0.9,0.1-2.4,0.3-4.7,0.3c-3,0-6.1-0.7-6.1-5.3v-7.5c0-4.6,3-5.3,6.1-5.3
		c2.3,0,3.8,0.2,4.7,0.3c0.3,0,0.5,0.2,0.5,0.5v2.9c0,0.3-0.2,0.5-0.5,0.5h-4.8c-0.9,0-1.1,0.3-1.1,1.2v1.7h5.8
		c0.3,0,0.5,0.2,0.5,0.5v2.8c0,0.3-0.2,0.5-0.5,0.5h-5.8v2c0,0.9,0.3,1.2,1.1,1.2h4.8c0.3,0,0.5,0.2,0.5,0.5v2.9
		C132.1,47.9,131.9,48,131.6,48.1z"/>
	<path fill="#FFFFFF" d="M145.1,34.4h-4.8c-0.9,0-1.1,0.3-1.1,1.2v1.7h5.8c0.3,0,0.5,0.2,0.5,0.5v2.8c0,0.3-0.2,0.5-0.5,0.5h-5.8
		v6.6c0,0.3-0.2,0.5-0.5,0.5h-3.9c-0.3,0-0.5-0.2-0.5-0.5V35.6c0-4.6,3-5.3,6.1-5.3c2.3,0,3.8,0.2,4.7,0.3c0.3,0,0.5,0.2,0.5,0.5V34
		C145.6,34.2,145.4,34.4,145.1,34.4z"/>
	<path fill="#FFFFFF" d="M158.4,48.1c-0.9,0.1-2.4,0.3-4.7,0.3c-3,0-6.1-0.7-6.1-5.3v-7.5c0-4.6,3-5.3,6.1-5.3
		c2.3,0,3.8,0.2,4.7,0.3c0.3,0,0.5,0.2,0.5,0.5v2.9c0,0.3-0.2,0.5-0.5,0.5h-4.8c-0.9,0-1.1,0.3-1.1,1.2v1.7h5.8
		c0.3,0,0.5,0.2,0.5,0.5v2.8c0,0.3-0.2,0.5-0.5,0.5h-5.8v2c0,0.9,0.3,1.2,1.1,1.2h4.8c0.3,0,0.5,0.2,0.5,0.5v2.9
		C158.9,47.9,158.8,48,158.4,48.1z"/>
	<path fill="#FFFFFF" d="M175.5,48.2h-4.4c-0.3,0-0.4-0.2-0.5-0.5l-3-5.7l-0.2-0.1c-0.2,0-1,0-1.2,0v5.8c0,0.3-0.2,0.5-0.5,0.5h-3.8
		c-0.3,0-0.5-0.2-0.5-0.5V32.2c0-1.1,0.4-1.4,1.4-1.6c1-0.1,3.3-0.3,5-0.3c4.4,0,7.4,1.4,7.4,5.7v0.4c0,2.5-1.4,4-2.9,4.7l3.4,6.5
		c0,0.1,0.1,0.2,0.1,0.3C175.9,48,175.7,48.2,175.5,48.2z M170.5,36c0-1.1-0.8-1.7-2.4-1.7c-0.2,0-1.7,0-1.8,0v3.8
		c0.1,0,1.6,0,1.7,0c1.8,0,2.5-0.6,2.5-1.8V36z"/>
	<path fill="#FFFFFF" d="M188.2,48.1c-0.9,0.1-2.4,0.3-4.7,0.3c-3,0-6.1-0.7-6.1-5.3v-7.5c0-4.6,3-5.3,6.1-5.3
		c2.3,0,3.8,0.2,4.7,0.3c0.3,0,0.5,0.2,0.5,0.5v2.9c0,0.3-0.2,0.5-0.5,0.5h-4.8c-0.9,0-1.1,0.3-1.1,1.2v1.7h5.8
		c0.3,0,0.5,0.2,0.5,0.5v2.8c0,0.3-0.2,0.5-0.5,0.5h-5.8v2c0,0.9,0.3,1.2,1.1,1.2h4.8c0.3,0,0.5,0.2,0.5,0.5v2.9
		C188.7,47.9,188.5,48,188.2,48.1z"/>
	<path fill="#FFFFFF" d="M205.1,48.2h-3.9c-0.3,0-0.5-0.2-0.5-0.5V37.2c0-2.3-0.8-2.8-2.4-2.8c-0.7,0-1.6,0-2.3,0.1v13.2
		c0,0.3-0.2,0.5-0.5,0.5h-3.9c-0.3,0-0.5-0.2-0.5-0.5V32.4c0-1.3,0.4-1.6,1.4-1.7c1.2-0.2,4.1-0.4,5.1-0.4c4.8,0,7.8,1.1,7.8,6.9
		v10.5C205.6,47.9,205.4,48.2,205.1,48.2z"/>
	<path fill="#FFFFFF" d="M219.7,48.2h-11.2c-0.4,0-0.7-0.2-0.7-0.6v-2.5c0-0.4,0.1-0.7,0.4-1.2l5.7-8.8c0.1-0.1,0.1-0.2,0.1-0.3
		s-0.1-0.2-0.3-0.2h-5.2c-0.3,0-0.5-0.2-0.5-0.5V31c0-0.3,0.2-0.5,0.5-0.5h10.8c0.3,0,0.6,0.1,0.6,0.4v3c0,0.3-0.1,0.7-0.8,1.7
		l-5.2,7.9c-0.1,0.1-0.1,0.2-0.1,0.3c0,0.1,0.1,0.2,0.3,0.2h5.5c0.3,0,0.5,0.2,0.5,0.5v3.2C220.2,47.9,220,48.2,219.7,48.2z"/>
	<path fill="#FFFFFF" d="M226.9,48.2H223c-0.3,0-0.5-0.2-0.5-0.5V31c0-0.3,0.2-0.5,0.5-0.5h3.9c0.3,0,0.5,0.2,0.5,0.5v16.7
		C227.3,47.9,227.1,48.2,226.9,48.2z"/>
	<path fill="#FFFFFF" d="M240.7,48.1c-0.9,0.1-2.4,0.3-4.7,0.3c-3,0-6.1-0.7-6.1-5.3v-7.5c0-4.6,3-5.3,6.1-5.3
		c2.3,0,3.8,0.2,4.7,0.3c0.3,0,0.5,0.2,0.5,0.5v2.9c0,0.3-0.2,0.5-0.5,0.5h-4.8c-0.9,0-1.1,0.3-1.1,1.2v1.7h5.8
		c0.3,0,0.5,0.2,0.5,0.5v2.8c0,0.3-0.2,0.5-0.5,0.5h-5.8v2c0,0.9,0.3,1.2,1.1,1.2h4.8c0.3,0,0.5,0.2,0.5,0.5v2.9
		C241.2,47.9,241,48,240.7,48.1z"/>
	<path fill="#FFFFFF" d="M257.7,48.2h-4.4c-0.3,0-0.4-0.2-0.5-0.5l-3-5.7l-0.2-0.1c-0.2,0-1,0-1.2,0v5.8c0,0.3-0.2,0.5-0.5,0.5h-3.8
		c-0.3,0-0.5-0.2-0.5-0.5V32.2c0-1.1,0.4-1.4,1.4-1.6c1-0.1,3.3-0.3,5-0.3c4.4,0,7.4,1.4,7.4,5.7v0.4c0,2.5-1.4,4-2.9,4.7l3.4,6.5
		c0,0.1,0.1,0.2,0.1,0.3C258.1,48,258,48.2,257.7,48.2z M252.7,36c0-1.1-0.8-1.7-2.4-1.7c-0.2,0-1.7,0-1.8,0v3.8c0.1,0,1.6,0,1.7,0
		c1.8,0,2.5-0.6,2.5-1.8V36z"/>
	<path fill="#FFFFFF" d="M270.5,48.1c-0.9,0.1-2.4,0.3-4.7,0.3c-3,0-6.1-0.7-6.1-5.3v-7.5c0-4.6,3-5.3,6.1-5.3
		c2.3,0,3.8,0.2,4.7,0.3c0.3,0,0.5,0.2,0.5,0.5v2.9c0,0.3-0.2,0.5-0.5,0.5h-4.8c-0.9,0-1.1,0.3-1.1,1.2v1.7h5.8
		c0.3,0,0.5,0.2,0.5,0.5v2.8c0,0.3-0.2,0.5-0.5,0.5h-5.8v2c0,0.9,0.3,1.2,1.1,1.2h4.8c0.3,0,0.5,0.2,0.5,0.5v2.9
		C271,47.9,270.8,48,270.5,48.1z"/>
	<path fill="#FFFFFF" d="M287.5,48.2h-4.4c-0.3,0-0.4-0.2-0.5-0.5l-3-5.7l-0.2-0.1c-0.2,0-1,0-1.2,0v5.8c0,0.3-0.2,0.5-0.5,0.5H274
		c-0.3,0-0.5-0.2-0.5-0.5V32.2c0-1.1,0.4-1.4,1.4-1.6c1-0.1,3.3-0.3,5-0.3c4.4,0,7.4,1.4,7.4,5.7v0.4c0,2.5-1.4,4-2.9,4.7l3.4,6.5
		c0,0.1,0.1,0.2,0.1,0.3C287.9,48,287.8,48.2,287.5,48.2z M282.5,36c0-1.1-0.8-1.7-2.4-1.7c-0.2,0-1.7,0-1.8,0v3.8
		c0.1,0,1.6,0,1.7,0c1.8,0,2.5-0.6,2.5-1.8V36z"/>
</g>
<polygon fill="#FFFFFF" points="11,10 7,10 7,6 6,6 6,10 2,10 2,11 6,11 6,15 7,15 7,11 11,11 "/>
<polygon fill="#FFFFFF" points="54,28 50,28 50,24 49,24 49,28 45,28 45,29 49,29 49,33 50,33 50,29 54,29 "/>
<polygon fill="#FFFFFF" points="37,47 29,47 29,42 15,42 15,48 37,48 "/>
<polygon fill="#FFFFFF" points="52,44 41,44 41,33 40,33 40,44 31,44 31,45 40,45 40,54 41,54 41,45 52,45 "/>
</svg>
