<?xml version="1.0" encoding="utf-8"?>
<!-- Generator: Adobe Illustrator 18.0.0, SVG Export Plug-In . SVG Version: 6.00 Build 0)  -->
<!DOCTYPE svg PUBLIC "-//W3C//DTD SVG 1.1 Tiny//EN" "http://www.w3.org/Graphics/SVG/1.1/DTD/svg11-tiny.dtd">
<svg version="1.1" baseProfile="tiny" id="Ebene_1" xmlns="http://www.w3.org/2000/svg" xmlns:xlink="http://www.w3.org/1999/xlink"
	 x="0px" y="0px" viewBox="0 0 22 22" xml:space="preserve">
<g>
	<path fill="none" stroke="#FFFFFF" stroke-miterlimit="10" d="M17.6,10.4v5.2c0,2.2-1.8,4-3.9,4H11c-1.3,0-2.6-0.7-3.3-1.9
		c-1.4-2.2-3-5.8-3-5.8c-0.3-0.4-0.2-0.9,0.1-1.2c0.3-0.4,0.9-0.4,1.3-0.1l2.5,2.4V5c0-0.7,0.3-1.1,1-1.1c0.7,0,1,0.5,1,1.2V10"/>
	<path fill="none" stroke="#FFFFFF" stroke-miterlimit="10" d="M10.5,8.3V3.5c0-0.7,0.5-1.2,1.2-1.2c0.7,0,1.2,0.5,1.2,1.2v4.8"/>
	<path fill="none" stroke="#FFFFFF" stroke-miterlimit="10" d="M12.8,10V5.1c0-0.7,0.5-1.2,1.2-1.2c0.7,0,1.2,0.5,1.2,1.2V10"/>
	<path fill="none" stroke="#FFFFFF" stroke-miterlimit="10" d="M15.2,11.2V7.5c0-0.7,0.5-1.2,1.2-1.2c0.7,0,1.2,0.5,1.2,1.2v4.8"/>
</g>
</svg>
