<?xml version="1.0" encoding="utf-8"?>
<!-- Generator: Adobe Illustrator 18.0.0, SVG Export Plug-In . SVG Version: 6.00 Build 0)  -->
<!DOCTYPE svg PUBLIC "-//W3C//DTD SVG 1.1 Tiny//EN" "http://www.w3.org/Graphics/SVG/1.1/DTD/svg11-tiny.dtd">
<svg version="1.1" baseProfile="tiny" id="Ebene_1" xmlns="http://www.w3.org/2000/svg" xmlns:xlink="http://www.w3.org/1999/xlink"
	 x="0px" y="0px" viewBox="0 0 22 22" xml:space="preserve">
<g>
	<path fill="none" stroke="#FFFFFF" stroke-linejoin="round" stroke-miterlimit="10" d="M8.3,15L15,8.3c1,0.4,2.2,0.2,3-0.6
		c0.8-0.8,1-1.8,0.6-2.8l-1.3,1.6h-1.8v-2L17,3.2c-1-0.4-2.1-0.2-3,0.6c-0.8,0.8-1,2-0.6,3l-6.6,6.7c-1-0.4-2.2-0.2-3,0.6
		C3,14.9,2.8,16,3.2,17l1.3-1.5h2v1.8l-1.6,1.3c1,0.4,2.1,0.2,2.9-0.6C8.7,17.2,8.8,16,8.3,15z"/>
</g>
</svg>
