<?xml version="1.0" encoding="utf-8"?>
<!-- Generator: Adobe Illustrator 18.0.0, SVG Export Plug-In . SVG Version: 6.00 Build 0)  -->
<!DOCTYPE svg PUBLIC "-//W3C//DTD SVG 1.1 Tiny//EN" "http://www.w3.org/Graphics/SVG/1.1/DTD/svg11-tiny.dtd">
<svg version="1.1" baseProfile="tiny" id="Ebene_1" xmlns="http://www.w3.org/2000/svg" xmlns:xlink="http://www.w3.org/1999/xlink"
	 x="0px" y="0px" viewBox="0 0 190 50" xml:space="preserve">
<g>
	<rect x="12.9" y="0.1" fill="#FFFFFF" width="25.8" height="7"/>
	<rect x="4.7" y="14.2" fill="#FFFFFF" width="39.9" height="7"/>
	<rect y="28.2" fill="#FFFFFF" width="35.2" height="7"/>
	<rect x="9.4" y="42.3" fill="#FFFFFF" width="30.5" height="7"/>
</g>
<g>
	<path fill="#FFFFFF" d="M70.5,0.5L67.2,12c-0.3,1.1-1.1,1.3-1.8,1.3c-0.7,0-1.5-0.2-1.8-1.3L60.4,0.5c0,0,0-0.1,0-0.1
		c0-0.2,0.1-0.3,0.3-0.3h1c0.1,0,0.3,0.1,0.3,0.3l3.1,11.2c0.1,0.2,0.2,0.4,0.4,0.4c0.2,0,0.3-0.1,0.3-0.4l3.1-11.2
		c0-0.1,0.2-0.3,0.3-0.3h1c0.2,0,0.3,0.1,0.3,0.3C70.5,0.5,70.5,0.5,70.5,0.5z"/>
	<path fill="#FFFFFF" d="M73.7,13.2h-1c-0.2,0-0.3-0.2-0.3-0.4V0.5c0-0.2,0.1-0.3,0.3-0.3h1c0.2,0,0.3,0.1,0.3,0.3v12.4
		C74,13,73.9,13.2,73.7,13.2z"/>
	<path fill="#FFFFFF" d="M85.3,13.2H84c-0.2,0-0.2,0-0.4-0.2l-3.1-5.2c-0.1,0-0.1,0-0.2,0c-0.1,0-0.2,0-0.3,0c-0.6,0-1.5,0-1.9-0.1
		v5.2c0,0.2-0.1,0.4-0.3,0.4h-0.9c-0.2,0-0.3-0.2-0.3-0.4V0.5c0-0.2,0.1-0.4,0.4-0.4C77.7,0.1,79,0,80.1,0C82.8,0,85,0.9,85,3.8v0.1
		c0,2-1.2,3.1-2.8,3.5l3.2,5.4c0,0.1,0.1,0.1,0.1,0.2C85.5,13.1,85.4,13.2,85.3,13.2z M83.4,3.8c0-1.8-1.1-2.3-3.3-2.3
		c-0.5,0-1.5,0-1.9,0.1v4.8c0.4,0,1.5,0,1.9,0c2.2,0,3.3-0.5,3.3-2.4V3.8z"/>
	<path fill="#FFFFFF" d="M94.9,1.5h-3.4v11.3c0,0.2-0.1,0.4-0.3,0.4h-1c-0.2,0-0.3-0.2-0.3-0.4V1.5h-3.4c-0.2,0-0.4-0.1-0.4-0.3V0.4
		c0-0.2,0.2-0.3,0.4-0.3h8.4c0.2,0,0.3,0.1,0.3,0.3v0.8C95.2,1.4,95.1,1.5,94.9,1.5z"/>
	<path fill="#FFFFFF" d="M105.2,13.1c-0.9,0.1-2.8,0.2-3.7,0.2c-3.2,0-4.8-1.2-4.8-5.1V0.5c0-0.2,0.1-0.4,0.3-0.4h1
		c0.2,0,0.3,0.2,0.3,0.4v7.8c0,3.1,1.1,3.7,3.2,3.7c0.8,0,2.2-0.1,2.6-0.1V0.5c0-0.2,0.1-0.4,0.3-0.4h1c0.2,0,0.3,0.2,0.3,0.4v12.1
		C105.7,13,105.5,13.1,105.2,13.1z"/>
	<path fill="#FFFFFF" d="M115.3,13.2c-0.7,0.1-2.4,0.1-3.4,0.1c-2.5,0-3.7-0.9-3.7-3.3V3.3c0-2.3,1.3-3.3,3.7-3.3c1,0,2.7,0,3.4,0.1
		c0.1,0,0.2,0.1,0.2,0.2v0.9c0,0.1-0.1,0.2-0.2,0.2h-3.4c-1.9,0-2.2,0.5-2.2,1.8v2.4h5.4c0.2,0,0.4,0.2,0.4,0.4v0.7
		c0,0.2-0.2,0.4-0.4,0.4h-5.4v3c0,1.3,0.3,1.8,2.2,1.8h3.4c0.1,0,0.2,0.1,0.2,0.2V13C115.5,13.1,115.4,13.2,115.3,13.2z"/>
	<path fill="#FFFFFF" d="M124.6,13.1c-0.5,0.1-1.8,0.2-3.4,0.2c-1.9,0-3.7-0.4-3.7-3.3V0.5c0-0.2,0.2-0.4,0.4-0.4h0.9
		c0.2,0,0.4,0.2,0.4,0.4V10c0,1.3,0.3,1.8,2.2,1.8h3.4c0.1,0,0.2,0.1,0.2,0.2v0.8C124.8,13,124.8,13.1,124.6,13.1z"/>
	<path fill="#FFFFFF" d="M133.5,13.1c-0.5,0.1-1.8,0.2-3.4,0.2c-1.9,0-3.7-0.4-3.7-3.3V0.5c0-0.2,0.2-0.4,0.4-0.4h0.9
		c0.2,0,0.4,0.2,0.4,0.4V10c0,1.3,0.3,1.8,2.2,1.8h3.4c0.1,0,0.2,0.1,0.2,0.2v0.8C133.7,13,133.6,13.1,133.5,13.1z"/>
	<path fill="#FFFFFF" d="M142.1,13.2c-0.7,0.1-2.4,0.1-3.4,0.1c-2.5,0-3.7-0.9-3.7-3.3V3.3c0-2.3,1.3-3.3,3.7-3.3c1,0,2.7,0,3.4,0.1
		c0.1,0,0.2,0.1,0.2,0.2v0.9c0,0.1-0.1,0.2-0.2,0.2h-3.4c-1.9,0-2.2,0.5-2.2,1.8v2.4h5.4c0.2,0,0.4,0.2,0.4,0.4v0.7
		c0,0.2-0.2,0.4-0.4,0.4h-5.4v3c0,1.3,0.3,1.8,2.2,1.8h3.4c0.1,0,0.2,0.1,0.2,0.2V13C142.3,13.1,142.2,13.2,142.1,13.2z"/>
	<path fill="#FFFFFF" d="M147.4,13.3c-1.2,0-2.1-0.1-2.9-0.2c-0.3-0.1-0.3-0.1-0.3-0.3V12c0-0.2,0.1-0.3,0.3-0.3c0,0,0,0,0.1,0
		c0.8,0.1,2.1,0.1,2.9,0.1c2.1,0,2.7-0.8,2.7-2.1c0-0.9-0.5-1.4-2.1-2.4l-1.7-1c-1.6-1-2.4-1.9-2.4-3.3c0-2.1,1.5-3.1,4.2-3.1
		c1,0,2.4,0.1,3.1,0.2c0.2,0,0.3,0.1,0.3,0.3v0.8c0,0.2-0.1,0.3-0.3,0.3c0,0,0,0,0,0c-0.8-0.1-2-0.1-3-0.1c-1.8,0-2.6,0.4-2.6,1.7
		c0,0.8,0.6,1.3,1.9,2.1l1.6,1c2,1.2,2.8,2.2,2.8,3.6C151.8,11.5,150.9,13.3,147.4,13.3z"/>
	<path fill="#FFFFFF" d="M71.6,31.3H68c-0.2,0-0.3-0.1-0.4-0.3l-3.1-5.6v5.5c0,0.2-0.2,0.4-0.4,0.4h-2.9c-0.2,0-0.4-0.2-0.4-0.4
		V18.5c0-0.2,0.2-0.3,0.4-0.3h2.9c0.2,0,0.4,0.1,0.4,0.3v5.6l3.4-5.6c0.1-0.2,0.2-0.3,0.4-0.3h3.4c0.2,0,0.2,0.1,0.2,0.2
		c0,0.1,0,0.1-0.1,0.2l-3.8,6l3.8,6.3c0,0.1,0.1,0.1,0.1,0.2C71.9,31.2,71.8,31.3,71.6,31.3z"/>
	<path fill="#FFFFFF" d="M83.2,31.3h-2.9c-0.2,0-0.3-0.2-0.3-0.4V27h-3.2v3.9c0,0.2-0.1,0.4-0.3,0.4h-2.9c-0.2,0-0.4-0.2-0.4-0.4V22
		c0-3.4,2.2-4,4.5-4h1.4c2.3,0,4.5,0.6,4.5,4v8.9C83.6,31.1,83.4,31.3,83.2,31.3z M80,22c0-0.7-0.2-0.9-0.9-0.9h-1.4
		c-0.7,0-0.9,0.2-0.9,0.9v2.1H80V22z"/>
	<path fill="#FFFFFF" d="M96.4,31.3h-3.2c-0.2,0-0.3-0.2-0.4-0.4l-2.2-4.2l-0.1-0.1c-0.2,0-0.7,0-0.9,0v4.3c0,0.2-0.2,0.4-0.4,0.4
		h-2.8c-0.2,0-0.4-0.2-0.4-0.4V19.4c0-0.8,0.3-1,1-1.2c0.7-0.1,2.5-0.2,3.7-0.2c3.3,0,5.5,1,5.5,4.3v0.3c0,1.9-1,3-2.1,3.5l2.5,4.8
		c0,0.1,0.1,0.1,0.1,0.2C96.7,31.1,96.6,31.3,96.4,31.3z M92.7,22.3c0-0.8-0.6-1.2-1.8-1.2c-0.1,0-1.2,0-1.4,0v2.8
		c0.1,0,1.2,0,1.3,0c1.4,0,1.8-0.5,1.8-1.3L92.7,22.3L92.7,22.3z"/>
	<path fill="#FFFFFF" d="M106.4,21.1h-2.6v9.8c0,0.2-0.2,0.4-0.4,0.4h-2.9c-0.2,0-0.4-0.2-0.4-0.4v-9.8h-2.7c-0.2,0-0.4-0.1-0.4-0.3
		v-2.2c0-0.2,0.2-0.3,0.4-0.3h8.9c0.2,0,0.4,0.1,0.4,0.3v2.2C106.8,21,106.6,21.1,106.4,21.1z"/>
	<path fill="#FFFFFF" d="M115.7,31.2c-0.7,0.1-1.8,0.2-3.5,0.2c-2.2,0-4.5-0.5-4.5-3.9V22c0-3.4,2.2-3.9,4.5-3.9
		c1.7,0,2.8,0.1,3.5,0.2c0.2,0,0.4,0.1,0.4,0.4v2.1c0,0.2-0.2,0.4-0.4,0.4h-3.5c-0.6,0-0.8,0.2-0.8,0.9v1.3h4.3
		c0.2,0,0.4,0.2,0.4,0.4v2.1c0,0.2-0.2,0.4-0.4,0.4h-4.3v1.5c0,0.7,0.2,0.9,0.8,0.9h3.5c0.2,0,0.4,0.2,0.4,0.4v2.1
		C116.1,31.1,116,31.2,115.7,31.2z"/>
	<path fill="#FFFFFF" d="M128.6,31.3h-2.9c-0.2,0-0.3-0.2-0.3-0.4v-7.8c0-1.7-0.6-2.1-1.8-2.1c-0.5,0-1.2,0-1.7,0.1v9.7
		c0,0.2-0.2,0.4-0.4,0.4h-2.9c-0.2,0-0.4-0.2-0.4-0.4V19.6c0-0.9,0.3-1.2,1.1-1.3c0.9-0.1,3-0.3,3.8-0.3c3.5,0,5.8,0.8,5.8,5.1v7.8
		C129,31.1,128.8,31.3,128.6,31.3z"/>
	<path fill="#FFFFFF" d="M139.3,21.1h-3.5c-0.6,0-0.8,0.2-0.8,0.9v1.3h4.3c0.2,0,0.4,0.2,0.4,0.4v2.1c0,0.2-0.2,0.4-0.4,0.4h-4.3
		v4.9c0,0.2-0.2,0.4-0.4,0.4h-2.9c-0.2,0-0.4-0.2-0.4-0.4V22c0-3.4,2.2-3.9,4.5-3.9c1.7,0,2.8,0.1,3.5,0.2c0.2,0,0.4,0.1,0.4,0.4
		v2.1C139.6,20.9,139.4,21.1,139.3,21.1z"/>
	<path fill="#FFFFFF" d="M146.1,31.4c-2.9,0-5.4-1.5-5.4-5.8v-1.8c0-4.3,2.5-5.8,5.4-5.8s5.4,1.5,5.4,5.8v1.8
		C151.5,29.9,149,31.4,146.1,31.4z M147.9,23.8c0-1.9-0.5-2.7-1.8-2.7c-1.2,0-1.8,0.8-1.8,2.7v1.8c0,1.9,0.5,2.6,1.8,2.6
		c1.2,0,1.8-0.8,1.8-2.6V23.8z"/>
	<path fill="#FFFFFF" d="M163.3,31.3h-3.2c-0.2,0-0.3-0.2-0.4-0.4l-2.2-4.2l-0.1-0.1c-0.2,0-0.7,0-0.9,0v4.3c0,0.2-0.2,0.4-0.4,0.4
		h-2.8c-0.2,0-0.4-0.2-0.4-0.4V19.4c0-0.8,0.3-1,1-1.2c0.7-0.1,2.5-0.2,3.7-0.2c3.3,0,5.5,1,5.5,4.3v0.3c0,1.9-1,3-2.1,3.5l2.5,4.8
		c0,0.1,0.1,0.1,0.1,0.2C163.6,31.1,163.5,31.3,163.3,31.3z M159.6,22.3c0-0.8-0.6-1.2-1.8-1.2c-0.1,0-1.2,0-1.4,0v2.8
		c0.1,0,1.2,0,1.3,0c1.4,0,1.8-0.5,1.8-1.3L159.6,22.3L159.6,22.3z"/>
	<path fill="#FFFFFF" d="M174.3,31.1c-0.8,0.1-3,0.3-3.8,0.3c-3.4,0-5.7-0.8-5.7-5.1v-7.8c0-0.2,0.2-0.3,0.4-0.3h2.9
		c0.2,0,0.4,0.1,0.4,0.3v7.8c0,1.6,0.5,2.1,1.8,2.1c0.5,0,1.1,0,1.7-0.1v-9.8c0-0.2,0.2-0.3,0.4-0.3h2.8c0.2,0,0.4,0.1,0.4,0.3v11.2
		C175.4,30.8,175.1,31,174.3,31.1z"/>
	<path fill="#FFFFFF" d="M189.7,31.3h-2.9c-0.1,0-0.3-0.2-0.3-0.4v-6.4c0-0.1,0-0.2-0.1-0.2h-0.1l-0.2,0.3l-1.4,2.3
		c-0.1,0.2-0.3,0.3-0.5,0.3h-1.2c-0.2,0-0.4-0.1-0.5-0.3l-1.4-2.4c0-0.1-0.1-0.2-0.1-0.2H181c0,0-0.1,0.1-0.1,0.2v6.4
		c0,0.2-0.1,0.4-0.2,0.4h-2.9c-0.1,0-0.3,0-0.3-0.2V18.9c0-0.4,0.3-0.6,0.7-0.6h1.9c0.4,0,0.7,0.2,0.9,0.5l2.5,4.4
		c0.1,0.1,0.1,0.2,0.2,0.2c0.1,0,0.1-0.1,0.2-0.2l2.5-4.4c0.2-0.3,0.5-0.5,0.9-0.5h1.9c0.4,0,0.7,0.3,0.7,0.6V31
		C190,31.2,189.8,31.3,189.7,31.3z"/>
	<path fill="#FFFFFF" d="M66.7,42.7L65,43.8c-1.9,1.3-2.5,2.2-2.5,3.7v0.4h5.9c0.2,0,0.4,0.1,0.4,0.3V49c0,0.2-0.2,0.3-0.4,0.3h-7
		c-0.2,0-0.4-0.1-0.4-0.3v-1.4c0-1.8,0.8-3.3,2.7-4.6l1.8-1.2c1.5-1,1.8-1.4,1.8-2.5c0-1.3-0.7-1.8-2.6-1.8c-0.9,0-2.1,0.1-3.1,0.3
		c0,0,0,0-0.1,0c-0.2,0-0.3-0.1-0.3-0.3v-0.6c0-0.2,0.2-0.3,0.3-0.3c0.9-0.2,2.1-0.4,3.1-0.4c2.8,0,4.2,1,4.2,3.1
		C69,40.7,68.4,41.6,66.7,42.7z"/>
	<path fill="#FFFFFF" d="M71.9,49.3H71c-0.2,0-0.3-0.2-0.3-0.4v-1.6c0-0.2,0.1-0.3,0.3-0.3h0.8c0.2,0,0.3,0.1,0.3,0.3V49
		C72.2,49.2,72.1,49.3,71.9,49.3z"/>
	<path fill="#FFFFFF" d="M77.8,49.5c-2.7,0-4.3-1.6-4.3-5.5v-2.4c0-3.9,1.7-5.5,4.3-5.5c2.7,0,4.3,1.6,4.3,5.5V44
		C82.1,47.9,80.5,49.5,77.8,49.5z M80.5,41.6c0-3-1.1-4.1-2.7-4.1c-1.7,0-2.7,1.1-2.7,4.1V44c0,3,1.1,4.1,2.7,4.1
		c1.7,0,2.7-1.1,2.7-4.1V41.6z"/>
</g>
</svg>
