<?xml version="1.0" encoding="utf-8"?>
<!-- Generator: Adobe Illustrator 17.1.0, SVG Export Plug-In . SVG Version: 6.00 Build 0)  -->
<svg version="1.2" baseProfile="tiny" id="Ebene_1" xmlns="http://www.w3.org/2000/svg" xmlns:xlink="http://www.w3.org/1999/xlink"
	 x="0px" y="0px" viewBox="0 0 250 60" xml:space="preserve">
<g>
	<rect x="55" y="9" fill="#FFFFFF" width="22" height="6"/>
	<rect x="48" y="21" fill="#FFFFFF" width="34" height="6"/>
	<rect x="44" y="33" fill="#FFFFFF" width="30" height="6"/>
	<rect x="52" y="45" fill="#FFFFFF" width="26" height="6"/>
</g>
<g>
	<path fill="#FFFFFF" d="M104.11,9.358l-2.757,9.755c-0.27,0.944-0.959,1.139-1.528,1.139c-0.555,0-1.259-0.194-1.528-1.139
		l-2.772-9.755c-0.015-0.029-0.015-0.06-0.015-0.09c0-0.149,0.119-0.254,0.27-0.254h0.869c0.12,0,0.239,0.104,0.27,0.225
		l2.607,9.545c0.06,0.21,0.135,0.314,0.3,0.314c0.149,0,0.225-0.104,0.284-0.314l2.622-9.545c0.03-0.12,0.135-0.225,0.255-0.225
		h0.884c0.15,0,0.255,0.104,0.255,0.254C104.125,9.298,104.125,9.329,104.11,9.358z"/>
	<path fill="#FFFFFF" d="M106.865,20.147h-0.824c-0.149,0-0.27-0.135-0.27-0.3V9.298c0-0.149,0.105-0.284,0.27-0.284h0.824
		c0.15,0,0.271,0.119,0.271,0.284v10.549C107.135,19.998,107.03,20.147,106.865,20.147z"/>
	<path fill="#FFFFFF" d="M116.749,20.147H115.7c-0.181,0-0.21,0-0.33-0.194l-2.682-4.466c-0.046,0-0.091,0-0.136,0
		c-0.09,0-0.164,0-0.254,0c-0.495,0-1.274-0.03-1.648-0.045v4.405c0,0.15-0.105,0.3-0.27,0.3h-0.81c-0.149,0-0.27-0.135-0.27-0.3
		V9.358c0-0.209,0.09-0.299,0.359-0.329c0.645-0.075,1.769-0.12,2.638-0.12c2.367,0,4.195,0.794,4.195,3.222v0.104
		c0,1.679-0.989,2.668-2.353,3.027l2.757,4.6c0.03,0.045,0.045,0.091,0.045,0.136C116.943,20.087,116.883,20.147,116.749,20.147z
		 M115.145,12.13c0-1.498-0.974-1.993-2.847-1.993c-0.465,0-1.289,0-1.648,0.045v4.106c0.314,0,1.304,0.029,1.648,0.029
		c1.843,0,2.847-0.464,2.847-2.083V12.13z"/>
	<path fill="#FFFFFF" d="M124.946,10.182h-2.922v9.665c0,0.15-0.104,0.3-0.27,0.3h-0.824c-0.149,0-0.27-0.135-0.27-0.3v-9.665
		h-2.922c-0.165,0-0.3-0.074-0.3-0.239V9.284c0-0.15,0.135-0.27,0.3-0.27h7.207c0.165,0,0.285,0.104,0.285,0.27v0.659
		C125.231,10.092,125.111,10.182,124.946,10.182z"/>
	<path fill="#FFFFFF" d="M133.728,20.087c-0.794,0.119-2.428,0.18-3.191,0.18c-2.698,0-4.091-1.02-4.091-4.331V9.313
		c0-0.149,0.104-0.299,0.27-0.299h0.839c0.15,0,0.255,0.135,0.255,0.299v6.623c0,2.607,0.899,3.132,2.758,3.132
		c0.644,0,1.843-0.06,2.217-0.09V9.313c0-0.149,0.105-0.299,0.271-0.299h0.824c0.164,0,0.27,0.135,0.27,0.299v10.295
		C134.147,19.982,134.027,20.042,133.728,20.087z"/>
	<path fill="#FFFFFF" d="M142.359,20.177c-0.569,0.06-2.038,0.074-2.922,0.074c-2.098,0-3.191-0.794-3.191-2.787v-5.769
		c0-1.993,1.094-2.787,3.191-2.787c0.884,0,2.293,0.03,2.922,0.09c0.09,0.016,0.149,0.12,0.149,0.21v0.749
		c0,0.105-0.06,0.18-0.164,0.18h-2.893c-1.588,0-1.843,0.42-1.843,1.559v2.083h4.601c0.164,0,0.299,0.135,0.299,0.3v0.569
		c0,0.165-0.135,0.3-0.299,0.3h-4.601v2.517c0,1.14,0.255,1.559,1.843,1.559h2.893c0.104,0,0.164,0.075,0.164,0.18v0.765
		C142.509,20.057,142.449,20.162,142.359,20.177z"/>
	<path fill="#FFFFFF" d="M150.342,20.117c-0.39,0.061-1.514,0.135-2.922,0.135c-1.604,0-3.191-0.314-3.191-2.787V9.313
		c0-0.164,0.135-0.299,0.3-0.299h0.764c0.165,0,0.3,0.135,0.3,0.299v8.151c0,1.14,0.255,1.559,1.843,1.559h2.893
		c0.104,0,0.164,0.075,0.164,0.18v0.704C150.491,19.998,150.432,20.102,150.342,20.117z"/>
	<path fill="#FFFFFF" d="M157.929,20.117c-0.39,0.061-1.514,0.135-2.922,0.135c-1.604,0-3.191-0.314-3.191-2.787V9.313
		c0-0.164,0.135-0.299,0.3-0.299h0.764c0.165,0,0.3,0.135,0.3,0.299v8.151c0,1.14,0.255,1.559,1.843,1.559h2.893
		c0.104,0,0.165,0.075,0.165,0.18v0.704C158.079,19.998,158.019,20.102,157.929,20.117z"/>
	<path fill="#FFFFFF" d="M165.212,20.177c-0.569,0.06-2.038,0.074-2.922,0.074c-2.098,0-3.191-0.794-3.191-2.787v-5.769
		c0-1.993,1.094-2.787,3.191-2.787c0.884,0,2.293,0.03,2.922,0.09c0.09,0.016,0.15,0.12,0.15,0.21v0.749
		c0,0.105-0.061,0.18-0.165,0.18h-2.893c-1.588,0-1.843,0.42-1.843,1.559v2.083h4.601c0.164,0,0.3,0.135,0.3,0.3v0.569
		c0,0.165-0.136,0.3-0.3,0.3h-4.601v2.517c0,1.14,0.255,1.559,1.843,1.559h2.893c0.104,0,0.165,0.075,0.165,0.18v0.765
		C165.362,20.057,165.302,20.162,165.212,20.177z"/>
	<path fill="#FFFFFF" d="M169.779,20.251c-1.049,0-1.828-0.104-2.487-0.209c-0.255-0.045-0.285-0.105-0.285-0.271v-0.599
		c0-0.165,0.12-0.24,0.255-0.24c0.016,0,0.03,0,0.045,0c0.689,0.061,1.783,0.09,2.473,0.09c1.798,0,2.277-0.719,2.277-1.768
		c0-0.75-0.435-1.169-1.798-2.008l-1.453-0.885c-1.379-0.839-2.068-1.603-2.068-2.802c0-1.813,1.304-2.652,3.581-2.652
		c0.885,0,2.038,0.09,2.607,0.18c0.15,0.03,0.255,0.105,0.255,0.255v0.645c0,0.149-0.104,0.239-0.255,0.239c-0.015,0-0.015,0-0.03,0
		c-0.659-0.045-1.708-0.09-2.577-0.09c-1.543,0-2.202,0.33-2.202,1.424c0,0.704,0.494,1.124,1.633,1.813l1.379,0.824
		c1.738,1.033,2.353,1.857,2.353,3.057C173.48,18.694,172.731,20.251,169.779,20.251z"/>
	<path fill="#FFFFFF" d="M105.128,35.572h-3.146c-0.18,0-0.239-0.12-0.314-0.255l-2.638-4.78v4.735c0,0.165-0.135,0.3-0.299,0.3
		h-2.442c-0.165,0-0.315-0.135-0.315-0.3V24.724c0-0.165,0.15-0.284,0.315-0.284h2.442c0.164,0,0.299,0.119,0.299,0.284v4.75
		l2.877-4.794c0.075-0.135,0.165-0.239,0.33-0.239h2.877c0.135,0,0.21,0.06,0.21,0.164c0,0.045-0.015,0.105-0.061,0.165
		l-3.266,5.154l3.281,5.335c0.03,0.045,0.045,0.104,0.045,0.149C105.324,35.497,105.263,35.572,105.128,35.572z"/>
	<path fill="#FFFFFF" d="M115.018,35.572h-2.442c-0.165,0-0.285-0.135-0.285-0.3v-3.326h-2.742v3.326c0,0.165-0.12,0.3-0.284,0.3
		h-2.458c-0.165,0-0.3-0.135-0.3-0.3v-7.566c0-2.877,1.889-3.401,3.836-3.401h1.154c1.947,0,3.836,0.509,3.836,3.401v7.566
		C115.333,35.438,115.182,35.572,115.018,35.572z M112.291,27.707c0-0.6-0.18-0.779-0.794-0.779h-1.154
		c-0.599,0-0.794,0.18-0.794,0.779v1.767h2.742V27.707z"/>
	<path fill="#FFFFFF" d="M126.243,35.572h-2.758c-0.165,0-0.225-0.149-0.3-0.3l-1.873-3.596l-0.104-0.061
		c-0.149,0-0.629-0.015-0.779-0.015v3.671c0,0.165-0.135,0.3-0.3,0.3h-2.427c-0.165,0-0.315-0.135-0.315-0.3v-9.799
		c0-0.719,0.24-0.884,0.869-0.988c0.6-0.09,2.098-0.195,3.162-0.195c2.787,0,4.689,0.884,4.689,3.626v0.24
		c0,1.603-0.884,2.546-1.828,2.952l2.173,4.075c0.03,0.06,0.045,0.12,0.045,0.165C126.497,35.482,126.392,35.572,126.243,35.572z
		 M123.081,27.916c0-0.704-0.494-1.063-1.498-1.063c-0.105,0-1.064,0.03-1.154,0.03v2.381c0.075,0.016,1.004,0.016,1.094,0.016
		c1.154,0,1.559-0.405,1.559-1.109V27.916z"/>
	<path fill="#FFFFFF" d="M134.8,26.927h-2.232v8.345c0,0.165-0.136,0.3-0.3,0.3h-2.443c-0.165,0-0.3-0.135-0.3-0.3v-8.345h-2.278
		c-0.164,0-0.299-0.12-0.299-0.285v-1.918c0-0.165,0.135-0.284,0.299-0.284h7.553c0.164,0,0.314,0.119,0.314,0.284v1.918
		C135.114,26.807,134.964,26.927,134.8,26.927z"/>
	<path fill="#FFFFFF" d="M142.741,35.527c-0.569,0.075-1.498,0.18-2.952,0.18c-1.918,0-3.836-0.449-3.836-3.356v-4.705
		c0-2.892,1.918-3.356,3.836-3.356c1.454,0,2.383,0.105,2.952,0.18c0.194,0.03,0.3,0.12,0.3,0.3v1.828c0,0.165-0.135,0.3-0.3,0.3
		h-3.026c-0.54,0-0.72,0.165-0.72,0.749v1.094h3.687c0.164,0,0.3,0.135,0.3,0.299v1.769c0,0.164-0.136,0.3-0.3,0.3h-3.687v1.243
		c0,0.585,0.18,0.749,0.72,0.749h3.026c0.165,0,0.3,0.135,0.3,0.3v1.828C143.041,35.407,142.936,35.497,142.741,35.527z"/>
	<path fill="#FFFFFF" d="M153.74,35.572h-2.472c-0.165,0-0.285-0.135-0.285-0.3V28.65c0-1.423-0.524-1.753-1.528-1.753
		c-0.465,0-0.989,0.015-1.424,0.075v8.3c0,0.165-0.135,0.3-0.299,0.3h-2.458c-0.165,0-0.3-0.135-0.3-0.3v-9.634
		c0-0.809,0.226-0.989,0.914-1.094c0.765-0.12,2.562-0.255,3.207-0.255c3.026,0,4.944,0.689,4.944,4.36v6.623
		C154.04,35.438,153.905,35.572,153.74,35.572z"/>
	<path fill="#FFFFFF" d="M162.807,26.912h-3.026c-0.54,0-0.72,0.165-0.72,0.749v1.079h3.687c0.165,0,0.3,0.135,0.3,0.299v1.769
		c0,0.164-0.135,0.3-0.3,0.3h-3.687v4.165c0,0.165-0.135,0.3-0.3,0.3h-2.442c-0.164,0-0.299-0.135-0.299-0.3v-7.612
		c0-2.892,1.918-3.355,3.836-3.355c1.453,0,2.382,0.104,2.951,0.18c0.195,0.029,0.3,0.119,0.3,0.299v1.828
		C163.106,26.777,162.972,26.912,162.807,26.912z"/>
	<path fill="#FFFFFF" d="M168.651,35.707c-2.487,0-4.601-1.273-4.601-4.93v-1.543c0-3.656,2.113-4.945,4.601-4.945
		s4.6,1.289,4.6,4.945v1.543C173.251,34.434,171.139,35.707,168.651,35.707z M170.164,29.234c0-1.603-0.464-2.262-1.513-2.262
		s-1.514,0.659-1.514,2.262v1.543c0,1.604,0.465,2.248,1.514,2.248s1.513-0.645,1.513-2.248V29.234z"/>
	<path fill="#FFFFFF" d="M183.321,35.572h-2.757c-0.165,0-0.225-0.149-0.3-0.3l-1.873-3.596l-0.104-0.061
		c-0.149,0-0.629-0.015-0.779-0.015v3.671c0,0.165-0.135,0.3-0.3,0.3h-2.427c-0.165,0-0.315-0.135-0.315-0.3v-9.799
		c0-0.719,0.24-0.884,0.869-0.988c0.6-0.09,2.098-0.195,3.162-0.195c2.787,0,4.689,0.884,4.689,3.626v0.24
		c0,1.603-0.884,2.546-1.828,2.952l2.173,4.075c0.03,0.06,0.045,0.12,0.045,0.165C183.576,35.482,183.472,35.572,183.321,35.572z
		 M180.16,27.916c0-0.704-0.494-1.063-1.498-1.063c-0.105,0-1.064,0.03-1.154,0.03v2.381c0.075,0.016,1.004,0.016,1.094,0.016
		c1.154,0,1.559-0.405,1.559-1.109V27.916z"/>
	<path fill="#FFFFFF" d="M192.69,35.468c-0.675,0.104-2.548,0.239-3.207,0.239c-2.892,0-4.854-0.719-4.854-4.36v-6.623
		c0-0.165,0.135-0.284,0.3-0.284h2.442c0.164,0,0.299,0.119,0.299,0.284v6.623c0,1.349,0.45,1.798,1.514,1.798
		c0.42,0,0.974-0.029,1.438-0.09v-8.331c0-0.165,0.135-0.284,0.3-0.284h2.428c0.164,0,0.314,0.119,0.314,0.284v9.589
		C193.664,35.152,193.409,35.362,192.69,35.468z"/>
	<path fill="#FFFFFF" d="M205.845,35.572h-2.457c-0.12,0-0.226-0.135-0.226-0.3v-5.499c0-0.104-0.015-0.149-0.045-0.149h-0.045
		l-0.149,0.225l-1.199,1.992c-0.119,0.195-0.254,0.285-0.435,0.285h-1.033c-0.18,0-0.315-0.09-0.435-0.285l-1.229-2.053
		c-0.03-0.06-0.075-0.135-0.12-0.164h-0.045c-0.03,0-0.061,0.045-0.061,0.149v5.499c0,0.165-0.09,0.3-0.209,0.3h-2.473
		c-0.12,0-0.24-0.015-0.24-0.18V24.994c0-0.3,0.255-0.554,0.555-0.554h1.663c0.375,0,0.6,0.164,0.765,0.449l2.173,3.791
		c0.06,0.104,0.104,0.18,0.164,0.18c0.061,0,0.12-0.075,0.18-0.18l2.173-3.791c0.165-0.285,0.39-0.449,0.765-0.449h1.663
		c0.3,0,0.555,0.254,0.555,0.554v10.399C206.1,35.558,205.965,35.572,205.845,35.572z"/>
	<path fill="#FFFFFF" d="M100.933,45.335l-1.438,0.974c-1.663,1.124-2.098,1.889-2.098,3.192v0.314h5.05c0.165,0,0.3,0.09,0.3,0.255
		v0.659c0,0.165-0.135,0.27-0.3,0.27h-5.949c-0.164,0-0.3-0.12-0.3-0.285v-1.213c0-1.559,0.66-2.848,2.293-3.941l1.514-1.019
		c1.243-0.839,1.543-1.199,1.543-2.098c0-1.079-0.629-1.544-2.247-1.544c-0.779,0-1.813,0.105-2.652,0.225c-0.016,0-0.03,0-0.061,0
		c-0.149,0-0.239-0.104-0.239-0.27V40.33c0-0.149,0.135-0.239,0.284-0.27c0.765-0.194,1.783-0.3,2.668-0.3
		c2.427,0,3.581,0.839,3.581,2.683C102.881,43.627,102.327,44.391,100.933,45.335z"/>
	<path fill="#FFFFFF" d="M105.309,50.984h-0.719c-0.15,0-0.285-0.135-0.285-0.3v-1.394c0-0.15,0.12-0.285,0.285-0.285h0.719
		c0.149,0,0.285,0.12,0.285,0.285v1.394C105.594,50.85,105.474,50.984,105.309,50.984z"/>
	<path fill="#FFFFFF" d="M110.404,51.104c-2.263,0-3.686-1.349-3.686-4.66v-2.022c0-3.312,1.423-4.66,3.686-4.66
		s3.671,1.349,3.671,4.66v2.022C114.075,49.755,112.667,51.104,110.404,51.104z M112.711,44.421c0-2.532-0.899-3.506-2.308-3.506
		s-2.308,0.974-2.308,3.506v2.022c0,2.533,0.899,3.507,2.308,3.507s2.308-0.974,2.308-3.507V44.421z"/>
</g>
</svg>
